<svg xmlns:xlink="http://www.w3.org/1999/xlink" xmlns="http://www.w3.org/2000/svg" class="move icon-more-vert" width="512"  height="512" ><defs><symbol id="icon-more-vert" viewBox="0 0 512 512">
      <path d="m256 128c35 0 64-29 64-64 0-35-29-64-64-64-35 0-64 29-64 64 0 35 29 64 64 64z m0 64c-35 0-64 29-64 64 0 35 29 64 64 64 35 0 64-29 64-64 0-35-29-64-64-64z m0 192c-35 0-64 29-64 64 0 35 29 64 64 64 35 0 64-29 64-64 0-35-29-64-64-64z"></path>
    </symbol></defs><use xlink:href="#icon-more-vert"></use></svg>